<svg width="407" height="165" viewBox="0 0 407 165" fill="none" xmlns="http://www.w3.org/2000/svg">
<g filter="url(#filter0_ddi_1_111)">
<circle cx="203.5" cy="71.5" r="48.5" fill="url(#paint0_linear_1_111)"/>
</g>
<path d="M216.307 43.1396L227.087 54.3772V97.1107H186.816V97.2502H227.224V54.5186L216.307 43.1396Z" fill="#909090"/>
<path d="M216.174 43H186.679V97.1105H227.088V54.3789L216.174 43Z" fill="#F4F4F4"/>
<path d="M186.38 45.9062H174V59.1336H212.943V45.9062H186.38Z" fill="#7A7B7C"/>
<path d="M213.153 58.9089H174.253V45.6719H213.153V58.9089Z" fill="#DD2025"/>
<path d="M187.153 47.9097H187.095H186.694H184.621V57.2097H186.612V54.0729L187.052 54.098C187.48 54.0907 187.903 54.0141 188.306 53.8714C188.659 53.7499 188.984 53.5581 189.261 53.3075C189.543 53.0689 189.765 52.7677 189.91 52.4279C190.104 51.8631 190.174 51.2629 190.113 50.6687C190.101 50.2442 190.027 49.8238 189.893 49.4209C189.77 49.1301 189.589 48.868 189.36 48.6511C189.13 48.4343 188.859 48.2676 188.561 48.1615C188.305 48.0685 188.039 48.001 187.769 47.96C187.564 47.9285 187.358 47.9116 187.151 47.9097M186.785 52.3543H186.612V49.4868H186.986C187.151 49.4749 187.317 49.5002 187.471 49.5609C187.625 49.6216 187.763 49.7161 187.876 49.8375C188.109 50.1494 188.233 50.5292 188.23 50.9186C188.23 51.3952 188.23 51.8273 187.8 52.1315C187.49 52.3019 187.137 52.3806 186.785 52.3543Z" fill="#464648"/>
<path d="M193.895 47.8845C193.68 47.8845 193.471 47.9 193.323 47.9058L192.862 47.9175H191.351V57.2175H193.13C193.809 57.2361 194.486 57.1209 195.121 56.8784C195.633 56.6756 196.086 56.3486 196.439 55.9271C196.783 55.5017 197.029 55.0065 197.162 54.4759C197.314 53.875 197.388 53.257 197.383 52.6372C197.42 51.9051 197.363 51.1713 197.214 50.4536C197.072 49.9254 196.806 49.4386 196.439 49.0335C196.151 48.7063 195.798 48.4425 195.402 48.2585C195.063 48.1014 194.706 47.9856 194.339 47.9136C194.193 47.8895 194.045 47.8784 193.897 47.8806M193.544 55.5086H193.351V49.5721H193.376C193.775 49.5261 194.179 49.5982 194.538 49.7794C194.801 49.9893 195.015 50.2537 195.166 50.5544C195.329 50.8709 195.422 51.2182 195.441 51.5735C195.459 51.9998 195.441 52.3485 195.441 52.6372C195.449 52.9698 195.428 53.3024 195.377 53.6311C195.317 53.9687 195.207 54.2953 195.05 54.5999C194.872 54.8831 194.631 55.1217 194.346 55.2974C194.107 55.452 193.824 55.5241 193.54 55.5028" fill="#464648"/>
<path d="M203.383 47.9175H198.675V57.2175H200.667V53.5285H203.186V51.8002H200.667V49.6457H203.38V47.9175" fill="#464648"/>
<path d="M211.815 78.3692C211.815 78.3692 217.992 77.2493 217.992 79.3592C217.992 81.4692 214.165 80.6109 211.815 78.3692ZM207.248 78.53C206.267 78.7468 205.311 79.0643 204.394 79.4774L205.169 77.7337C205.944 75.9899 206.749 73.6126 206.749 73.6126C207.673 75.1691 208.749 76.6306 209.961 77.9759C209.047 78.1121 208.142 78.2984 207.248 78.5339V78.53ZM204.803 65.9362C204.803 64.0975 205.398 63.5957 205.861 63.5957C206.324 63.5957 206.845 63.8185 206.863 65.415C206.712 67.0204 206.376 68.6029 205.861 70.1309C205.156 68.848 204.791 67.4059 204.801 65.942L204.803 65.9362ZM195.796 86.311C193.901 85.1775 199.77 81.6881 200.833 81.5757C200.828 81.5777 197.78 87.4967 195.796 86.311ZM219.796 79.6092C219.776 79.4154 219.602 77.2706 215.785 77.3617C214.194 77.336 212.604 77.4482 211.032 77.6969C209.51 76.1631 208.199 74.4332 207.134 72.5528C207.805 70.6142 208.211 68.5938 208.341 66.5465C208.285 64.2215 207.729 62.8885 205.946 62.9079C204.164 62.9273 203.904 64.487 204.139 66.8081C204.368 68.3679 204.802 69.8908 205.427 71.338C205.427 71.338 204.604 73.9013 203.515 76.451C202.426 79.0008 201.682 80.3377 201.682 80.3377C199.788 80.9541 198.006 81.8698 196.402 83.0502C194.806 84.5362 194.157 85.6774 194.998 86.8186C195.722 87.8029 198.258 88.0257 200.525 85.0555C201.73 83.5214 202.83 81.9084 203.819 80.2272C203.819 80.2272 207.276 79.2798 208.351 79.0202C209.426 78.7605 210.726 78.5552 210.726 78.5552C210.726 78.5552 213.882 81.7307 216.926 81.6184C219.97 81.506 219.823 79.799 219.803 79.613" fill="#DD2025"/>
<path d="M216.023 43.1494V54.5284H226.937L216.023 43.1494Z" fill="#909090"/>
<path d="M216.171 43V54.3789H227.085L216.171 43Z" fill="#F4F4F4"/>
<path d="M187.001 47.7603H186.942H186.541H184.468V57.0603H186.468V53.9254L186.91 53.9506C187.337 53.9432 187.76 53.8667 188.163 53.7239C188.516 53.6023 188.841 53.4106 189.118 53.1601C189.398 52.9208 189.618 52.6196 189.762 52.2804C189.956 51.7157 190.025 51.1154 189.965 50.5212C189.953 50.0967 189.878 49.6763 189.744 49.2734C189.622 48.9826 189.44 48.7205 189.211 48.5037C188.982 48.2868 188.71 48.1201 188.413 48.0141C188.155 47.9202 187.888 47.852 187.617 47.8106C187.412 47.7791 187.206 47.7622 186.999 47.7603M186.632 52.2049H186.46V49.3374H186.836C187.001 49.3255 187.167 49.3508 187.32 49.4115C187.474 49.4722 187.613 49.5667 187.725 49.6881C187.958 50 188.083 50.3798 188.08 50.7692C188.08 51.2458 188.08 51.6779 187.65 51.9821C187.34 52.1525 186.987 52.2292 186.634 52.2029" fill="white"/>
<path d="M193.745 47.7351C193.53 47.7351 193.32 47.7506 193.173 47.7564L192.718 47.768H191.207V57.068H192.985C193.665 57.0867 194.342 56.9715 194.977 56.729C195.488 56.5262 195.941 56.1992 196.294 55.7777C196.638 55.3523 196.885 54.857 197.017 54.3265C197.169 53.7256 197.244 53.1076 197.238 52.4878C197.276 51.7557 197.219 51.0219 197.069 50.3042C196.928 49.776 196.662 49.2892 196.294 48.884C196.006 48.5569 195.653 48.293 195.258 48.109C194.918 47.9519 194.561 47.8362 194.194 47.7642C194.048 47.7401 193.9 47.729 193.752 47.7312M193.4 55.3592H193.206V49.4227H193.231C193.631 49.3767 194.035 49.4488 194.394 49.63C194.657 49.8399 194.871 50.1043 195.021 50.405C195.184 50.7214 195.278 51.0688 195.297 51.4241C195.314 51.8504 195.297 52.1991 195.297 52.4878C195.304 52.8203 195.283 53.1529 195.233 53.4817C195.173 53.8193 195.063 54.1459 194.905 54.4505C194.727 54.7337 194.487 54.9723 194.202 55.148C193.963 55.3026 193.68 55.3747 193.396 55.3534" fill="white"/>
<path d="M203.235 47.7681H198.527V57.0681H200.519V53.3791H203.037V51.6508H200.519V49.4963H203.231V47.7681" fill="white"/>
<path d="M405.947 116.437C404.841 115.386 403.746 114.347 402.64 113.296C402.568 112.95 402.395 112.636 402.065 112.409C401.471 111.999 400.933 111.58 400.384 111.171L393.026 104.187C391.723 102.955 389.871 104.771 391.028 106.123C392.13 107.418 393.3 108.626 394.494 109.767C354.129 95.708 313.24 83.1412 271.537 73.6176C270.895 73.4742 270.624 74.4368 271.266 74.6025C314.73 85.9207 357.805 98.6664 399.854 114.508C400.237 114.88 400.642 115.254 401.025 115.626C397.375 115.269 393.724 114.911 390.062 114.565C388.264 114.403 388.254 117.17 390.018 117.343C394.978 117.854 399.938 118.321 404.91 118.799C406.119 118.918 406.79 117.217 405.947 116.415L405.947 116.437Z" fill="white"/>
<path d="M0.997898 116.437C2.10383 115.386 3.19883 114.347 4.30477 113.296C4.37713 112.95 4.55001 112.636 4.87983 112.409C5.47352 111.999 6.01148 111.58 6.56072 111.171L13.9192 104.187C15.2223 102.955 17.0734 104.771 15.9166 106.123C14.8145 107.418 13.6444 108.626 12.4509 109.767C52.8159 95.708 93.7044 83.1412 135.407 73.6176C136.05 73.4742 136.32 74.4368 135.679 74.6025C92.2144 85.9207 49.1394 98.6664 7.09101 114.508C6.7079 114.88 6.30257 115.254 5.91946 115.626C9.57013 115.269 13.2208 114.911 16.8827 114.565C18.6806 114.403 18.6907 117.17 16.9264 117.343C11.9668 117.854 7.00644 118.321 2.0352 118.799C0.825712 118.918 0.154421 117.217 0.99754 116.415L0.997898 116.437Z" fill="white"/>
<defs>
<filter id="filter0_ddi_1_111" x="132" y="0" width="150" height="150" filterUnits="userSpaceOnUse" color-interpolation-filters="sRGB">
<feFlood flood-opacity="0" result="BackgroundImageFix"/>
<feColorMatrix in="SourceAlpha" type="matrix" values="0 0 0 0 0 0 0 0 0 0 0 0 0 0 0 0 0 0 127 0" result="hardAlpha"/>
<feOffset dx="-3" dy="-3"/>
<feGaussianBlur stdDeviation="10"/>
<feComposite in2="hardAlpha" operator="out"/>
<feColorMatrix type="matrix" values="0 0 0 0 1 0 0 0 0 1 0 0 0 0 1 0 0 0 0.18 0"/>
<feBlend mode="normal" in2="BackgroundImageFix" result="effect1_dropShadow_1_111"/>
<feColorMatrix in="SourceAlpha" type="matrix" values="0 0 0 0 0 0 0 0 0 0 0 0 0 0 0 0 0 0 127 0" result="hardAlpha"/>
<feOffset dx="10" dy="10"/>
<feGaussianBlur stdDeviation="10"/>
<feComposite in2="hardAlpha" operator="out"/>
<feColorMatrix type="matrix" values="0 0 0 0 0 0 0 0 0 0 0 0 0 0 0 0 0 0 0.8 0"/>
<feBlend mode="normal" in2="effect1_dropShadow_1_111" result="effect2_dropShadow_1_111"/>
<feBlend mode="normal" in="SourceGraphic" in2="effect2_dropShadow_1_111" result="shape"/>
<feColorMatrix in="SourceAlpha" type="matrix" values="0 0 0 0 0 0 0 0 0 0 0 0 0 0 0 0 0 0 127 0" result="hardAlpha"/>
<feOffset dx="-4" dy="-4"/>
<feGaussianBlur stdDeviation="3"/>
<feComposite in2="hardAlpha" operator="arithmetic" k2="-1" k3="1"/>
<feColorMatrix type="matrix" values="0 0 0 0 1 0 0 0 0 1 0 0 0 0 1 0 0 0 0.5 0"/>
<feBlend mode="normal" in2="shape" result="effect3_innerShadow_1_111"/>
</filter>
<linearGradient id="paint0_linear_1_111" x1="173.591" y1="27.85" x2="225.325" y2="109.492" gradientUnits="userSpaceOnUse">
<stop offset="0.28125" stop-color="white"/>
<stop offset="0.645833" stop-color="#C1C0C4"/>
<stop offset="0.864583" stop-color="#86848D"/>
<stop offset="1" stop-color="#343140"/>
</linearGradient>
</defs>
</svg>
